<svg width="1278.6211" height="28" xmlns="http://www.w3.org/2000/svg">
 <metadata id="metadata40956">image/svg+xml</metadata>

 <g>
  <title>background</title>
  <rect x="-1" y="-1" width="1280.6211" height="30" id="canvas_background" fill="none"/>
 </g>
 <g>
  <title>Layer 1</title>
  <g id="layer1">
   <path id="path36036-9-5" d="m1054.88372,14.958c-35.53252,0.1012 -78.49004,-5.3155 -110.49113,-0.9016c-35.31155,4.8705 -49.92312,-4.17571 -79.14648,-4.17571c-29.22335,0 -54.71592,4.635 -69.4043,5.4824c-31.65864,1.82651 -38.35577,-3.2201 -90.10547,-2.6113c-46.6659,0.549 -88.15198,-11.67329 -135.58984,-5.5079c-73.82179,9.5944 -101.4136,-6.3868 -164.38086,-0.051c-46.60816,4.6899 -70.54735,-7.6617 -112.81055,-1.6621c-40.46489,5.74421 -57.65429,4.26721 -124.19919,-3.6524c-39.9191,-4.7508 -83.8539,0.5661 -118.1309,4.3086c-15.4684,1.6889 -36.4678,-8.0258 -50.625,2.1543l0,19.1094l1278.62112,0l0,-12.49039c-9.0945,-0.37471 -22.7619,1.96759 -46.8652,1.53149c-26.2809,-0.4756 -50.4259,-5.7101 -68.7949,-4.2599c-23.1352,1.8264 -60.8841,5.47751 -97.4133,3.0422c-3.4246,-0.2283 -6.9883,-0.3269 -10.664,-0.3164l0,0.0003l0,0.00001z" stroke-width="1px" fill-rule="evenodd" fill="#88aa00"/>
  </g>
 </g>
</svg>