<svg width="1278.6211" height="27.217078" xmlns="http://www.w3.org/2000/svg">

 <metadata id="metadata6805">image/svg+xml</metadata>
 <g>
  <title>background</title>
  <rect fill="none" id="canvas_background" height="402" width="582" y="-1" x="-1"/>
 </g>
 <g>
  <title>Layer 1</title>
  <g id="layer1">
   <path fill="#88aa00" fill-rule="evenodd" stroke-width="1px" id="path36036-9-5" d="m1054.8837,4.724373c-35.5325,0.1012 -78.49002,-5.3155 -110.49111,-0.9016c-35.31155,4.8705 -49.92312,-2.1757 -79.14648,-2.1757c-29.22335,0 -54.71592,0.635 -69.4043,1.4824c-31.65864,1.8265 -38.36828,-3.9018 -90.10547,-2.6113c-51.88195,1.2942 -79.21017,1.5428 -135.58984,2.4921c-74.43211,1.2533 -101.4136,-6.3868 -164.38086,-0.051c-46.60816,4.6899 -70.12607,-2.1184 -112.81055,-1.6621c-49.40669,0.5281 -57.65429,8.2672 -124.19919,0.3476c-39.9191,-4.7508 -66.7154,2.5273 -118.1309,0.3086c-15.5459,-0.6708 -36.4678,-4.0258 -50.625,6.1543l0,19.1094l1278.62112,0l0,-12.4904c-9.0945,-0.3747 -8.7619,-12.0324 -32.8652,-12.4685c-26.28092,-0.4756 -64.42592,-1.7101 -82.79492,-0.2599c-23.1352,1.8264 -60.8841,5.4775 -97.4133,3.0422c-3.4246,-0.2283 -10.664,-3.9922 -10.664,-0.3164l0,0.0003z"/>
  </g>
 </g>
</svg>
